<svg width="82" height="110" viewBox="0 0 82 110" fill="none" xmlns="http://www.w3.org/2000/svg">
<path d="M54.3367 84.5219H31.2689C14.2327 84.5219 0.265015 70.5549 0.265015 53.3068C0.265015 40.7148 7.77791 29.4983 19.1002 24.6308C19.5234 11.1923 30.3166 0.504883 43.6494 0.504883C57.194 0.504883 68.199 11.6155 68.199 25.2657C68.199 28.1227 67.669 31.0856 66.717 33.731C75.394 38.281 81.002 47.487 81.002 57.5394C81.108 72.4599 69.151 84.5219 54.3367 84.5219ZM43.6494 6.85378C33.5969 6.85378 25.4491 15.1074 25.4491 25.2657C25.4491 25.689 25.4491 26.1122 25.4491 26.5355C25.5549 28.0169 24.7084 29.2867 23.3328 29.71C13.2803 33.0961 6.61391 42.6195 6.61391 53.201C6.61391 66.957 17.6187 78.0679 31.2689 78.0679H54.3367C65.553 78.0679 74.653 68.8617 74.653 57.5394C74.653 48.9684 69.363 41.2439 61.426 38.281C60.58 37.9636 59.945 37.3287 59.522 36.4822C59.204 35.6356 59.204 34.6833 59.733 33.8368C61.109 31.1914 61.85 28.2286 61.85 25.1599C61.85 15.1074 53.7018 6.85378 43.6494 6.85378ZM40.6865 109.495C38.8877 109.495 37.5121 108.119 37.5121 106.32V89.9189C37.5121 88.1199 38.8877 86.7449 40.6865 86.7449C42.4854 86.7449 43.861 88.1199 43.861 89.9189V106.32C43.861 108.119 42.4854 109.495 40.6865 109.495Z" fill="#090909"/>
</svg>
