<svg width="106" height="74" viewBox="0 0 106 74" fill="none" xmlns="http://www.w3.org/2000/svg">
<path d="M101.657 18.3382L58.3937 1.65222C55.0393 0.36202 51.2548 0.36202 47.9004 1.65222L4.6371 18.3382C2.3148 19.1984 0.766602 21.4346 0.766602 23.9289C0.766602 26.4232 2.3148 28.6595 4.6371 29.5196L16.1625 33.9922V54.033C16.1625 71.579 35.9449 73.815 53.1471 73.815C70.349 73.815 90.132 71.579 90.132 54.033V37.2606C90.132 35.2823 89.185 33.3901 87.551 32.272C85.917 31.1538 83.853 30.8958 81.961 31.5839L56.5015 41.3891C54.3512 42.2492 51.8569 42.2492 49.7066 41.3891L6.5293 24.703C6.0993 24.531 6.0132 24.187 6.0132 23.9289C6.0132 23.6709 6.0993 23.3269 6.5293 23.1548L49.7926 6.55482C51.9429 5.69472 54.4372 5.69472 56.5875 6.55482L99.851 23.1548C100.367 23.3269 100.539 23.7569 100.539 24.0149C100.539 24.101 100.539 24.101 100.539 24.187V36.8305C100.539 38.2927 101.657 39.4108 103.119 39.4108C104.581 39.4108 105.7 38.2927 105.7 36.8305V24.187C105.7 21.6066 104.151 19.2844 101.657 18.3382Z" fill="#090909"/>
</svg>
