<svg width="102" height="76" viewBox="0 0 102 76" fill="none" xmlns="http://www.w3.org/2000/svg">
<path d="M89.964 75.4521H11.4479C5.16659 75.4521 0.106689 70.3921 0.106689 64.1101V11.7665C0.106689 5.48519 5.16659 0.425293 11.4479 0.425293H89.964C96.245 0.425293 101.305 5.48519 101.305 11.7665V64.1101C101.305 70.3921 96.245 75.4521 89.964 75.4521ZM11.4479 5.65969C8.04549 5.65969 5.34109 8.36409 5.34109 11.7665V64.1101C5.34109 67.5131 8.04549 70.2171 11.4479 70.2171H89.964C93.366 70.2171 96.071 67.5131 96.071 64.1101V11.7665C96.071 8.36409 93.366 5.65969 89.964 5.65969H11.4479Z" fill="#090909"/>
</svg>
